<?xml version="1.0" encoding="UTF-8"?>
<svg id="svg1" xmlns="http://www.w3.org/2000/svg" version="1.1" xmlns:inkscape="http://www.inkscape.org/namespaces/inkscape" xmlns:sodipodi="http://sodipodi.sourceforge.net/DTD/sodipodi-0.dtd" xmlns:svg="http://www.w3.org/2000/svg" xmlns:xlink="http://www.w3.org/1999/xlink" viewBox="0 0 1439.99 1439.99">
  <!-- Generator: Adobe Illustrator 29.6.1, SVG Export Plug-In . SVG Version: 2.1.1 Build 9)  -->
  <defs>
    <style>
      .st0 {
        clip-path: url(#clippath-6);
      }

      .st1 {
        clip-path: url(#clippath-7);
      }

      .st2 {
        clip-path: url(#clippath-4);
      }

      .st3 {
        stroke: #42a09f;
        stroke-miterlimit: 13.33;
        stroke-width: 1.77px;
      }

      .st3, .st4 {
        fill: none;
      }

      .st5 {
        clip-path: url(#clippath-1);
      }

      .st6 {
        fill: #42a09f;
      }

      .st7 {
        clip-path: url(#clippath-5);
      }

      .st8 {
        clip-path: url(#clippath-3);
      }

      .st9 {
        clip-path: url(#clippath-2);
      }

      .st10 {
        clip-path: url(#clippath);
      }
    </style>
    <clipPath id="clippath">
      <rect class="st4" x="-1760.32" y="-1351.71" width="4960.63" height="4960.63"/>
    </clipPath>
    <clipPath id="clippath-1">
      <rect class="st4" x="-1760.32" y="-1351.71" width="4960.63" height="4960.63"/>
    </clipPath>
    <clipPath id="clippath-2">
      <rect class="st4" x="-1760.32" y="-1351.71" width="4960.63" height="4960.63"/>
    </clipPath>
    <clipPath id="clippath-3">
      <rect class="st4" x="-1760.32" y="-1351.71" width="4960.63" height="4960.63"/>
    </clipPath>
    <clipPath id="clippath-4">
      <rect class="st4" x="-1760.32" y="-1351.71" width="4960.63" height="4960.63"/>
    </clipPath>
    <clipPath id="clippath-5">
      <rect class="st4" x="-1760.32" y="-1351.71" width="4960.63" height="4960.63"/>
    </clipPath>
    <clipPath id="clippath-6">
      <rect class="st4" x="-1760.32" y="-1351.71" width="4960.63" height="4960.63"/>
    </clipPath>
    <clipPath id="clippath-7">
      <rect class="st4" x="-1760.32" y="-1351.71" width="4960.63" height="4960.63"/>
    </clipPath>
  </defs>
  <sodipodi:namedview id="namedview1" bordercolor="#000000" borderopacity="0.25" inkscape:deskcolor="#d1d1d1" inkscape:pagecheckerboard="0" inkscape:pageopacity="0.0" inkscape:showpageshadow="2" pagecolor="#ffffff">
    <inkscape:page id="page1" x="0" y="0" width="1439.9938" height="1439.9938" bleed="3.77952 3.7866666 3.7866666 3.77952" inkscape:label="1" margin="466.91782 249.28133 453.92267 249.80315"/>
  </sodipodi:namedview>
  <g id="layer-MC0" inkscape:groupmode="layer" inkscape:label="Layer 1">
    <g class="st10">
      <path id="path21" class="st6" d="M285.7,219.84c-31.16,15.88-56.5,36.98-75.9,63.53-2.18,3.03-4.24,6.06-6.18,9.09v-72.62h82.08Z"/>
    </g>
    <g class="st5">
      <path id="path23" class="st6" d="M502.6,700.08c0,11.88-4.12,20.61-12.36,26.19-8.25,5.7-18.31,8.49-30.19,8.49-32.37,0-50.19-20.13-53.59-60.5h-202.84v-165.01c.48.85,1.09,1.7,1.7,2.55,21.22,29.1,46.44,51.16,75.78,66.44,29.46,15.15,66.56,30.67,111.54,46.56,37.7,13.21,65.35,24.85,83.17,35.16,17.94,10.18,26.79,23.64,26.79,40.13"/>
    </g>
    <g class="st9">
      <path id="path25" class="st6" d="M772.61,1247.48H203.62v-463.27c14.31,24.49,33.58,45.59,57.71,62.93,54.56,39.4,123.67,59.04,207.57,59.04,55.53,0,103.42-9.58,143.67-28.74,7.16-3.39,13.82-7.03,20.37-10.79-7.76,30.31-11.64,62.92-11.64,97.96,0,65.83,13.7,123.3,40.98,172.28,26.55,47.65,63.29,84.51,110.33,110.57"/>
    </g>
    <g class="st8">
      <path id="path27" class="st6" d="M1231.15,219.84v591.18c-18.79-40.01-44.98-73.71-78.44-101.12-56.5-46.44-125.85-69.59-208.17-69.59-62.8,0-118.82,13.1-167.8,39.28-14.79,7.88-28.61,16.86-41.47,26.8.85-7.88,1.22-15.89,1.22-24.13,0-40.98-10.55-75.05-31.77-102.08-21.1-27.04-46.08-48.26-74.81-63.41-28.74-15.27-65.23-31.03-109.48-47.65-38.31-14.42-66.2-26.91-83.66-37.1-17.58-10.18-26.31-23.28-26.31-39.16,0-11.15,3.03-20,8.97-26.19,5.94-6.31,13.46-9.46,22.67-9.46,13.33,0,24.49,4.36,33.7,12.85,9.33,8.61,14.31,22.8,14.91,42.68h236.78c-2.67-72.02-29.22-127.91-79.78-167.56-12.25-9.58-25.58-18.07-40.01-25.34h623.42Z"/>
    </g>
    <g class="st2">
      <path id="path29" class="st6" d="M1231.15,902.91v123.42h-234.97c-9.7,32.98-28.85,49.47-57.23,49.47-20.25,0-36.13-9.33-47.65-28.13-11.64-18.67-17.46-46.31-17.46-83.05s5.82-64.38,17.46-83.05c11.52-18.67,27.4-28.01,47.65-28.01,28.37,0,47.53,16.37,57.23,49.35h234.97Z"/>
    </g>
    <g class="st7">
      <path id="path31" class="st6" d="M1231.15,1118.24v129.24h-118.94c14.18-8.24,27.76-17.58,40.49-28.13,33.46-27.4,59.65-61.11,78.44-101.12"/>
    </g>
    <g class="st0">
      <path id="path33" class="st3" d="M1321.98,250.86c0,17.13-13.89,31.01-31.01,31.01s-31.02-13.88-31.02-31.01,13.89-31.01,31.02-31.01,31.01,13.88,31.01,31.01Z"/>
    </g>
    <g class="st1">
      <path id="path35" class="st6" d="M1282.82,250.88v-14.98h7.21c2.96,0,5.12.65,6.5,1.94,1.36,1.27,2.04,3.12,2.04,5.46s-.71,4.16-2.13,5.52c-1.42,1.39-3.55,2.07-6.35,2.07h-7.27ZM1293.43,253.56c2.93-.55,5.15-1.76,6.63-3.58,1.48-1.85,2.25-4.07,2.25-6.69,0-3.11-1.05-5.64-3.11-7.55-2.1-1.91-5.15-2.9-9.16-2.9h-10.82v36.01h3.61v-15.04h6.66l8.91,15.04h4.32l-9.28-15.29Z"/>
    </g>
  </g>
</svg>